<svg version="1.0" xmlns="http://www.w3.org/2000/svg"
 width="512.000000pt" height="512.000000pt" viewBox="0 0 512.000000 512.000000"
 preserveAspectRatio="xMidYMid meet">
<g transform="translate(0.000000,512.000000) scale(0.100000,-0.100000)"
fill="#FFFFFF" stroke="none">
<path d="M2575 3940 c-1397 -648 -2547 -1183 -2555 -1189 -11 -7 -5 -10 25
-11 22 0 589 -40 1260 -88 l1220 -88 7 -24 c4 -14 55 -572 113 -1240 58 -668
109 -1232 113 -1252 7 -35 76 112 1167 2479 1221 2649 1195 2593 1192 2592 -1
0 -1145 -531 -2542 -1179z"/>
</g>
</svg>
