<svg version="1.0" xmlns="http://www.w3.org/2000/svg"
 width="512.000000pt" height="512.000000pt" viewBox="0 0 512.000000 512.000000"
 preserveAspectRatio="xMidYMid meet">
<g transform="translate(0.000000,512.000000) scale(0.100000,-0.100000)"
fill="#FFFFFF" stroke="none">
<path d="M2480 4868 c-27 -8 -240 -216 -897 -872 -492 -490 -870 -876 -880
-896 -24 -48 -23 -154 1 -200 26 -49 64 -88 111 -113 52 -28 155 -29 205 -3
19 10 374 356 788 769 l752 752 753 -752 c413 -413 768 -759 787 -769 48 -25
153 -25 200 0 107 56 157 162 130 278 -12 53 -17 58 -873 915 -502 503 -876
870 -897 880 -43 20 -132 26 -180 11z"/>
<path d="M2485 2345 c-22 -8 -42 -15 -45 -15 -3 0 -389 -384 -858 -852 -504
-504 -862 -869 -875 -893 -15 -29 -21 -58 -21 -105 0 -78 24 -131 84 -182 67
-58 145 -72 236 -42 45 15 116 84 801 768 l753 751 752 -751 c685 -684 757
-753 802 -768 91 -30 169 -16 236 42 60 51 84 104 84 182 0 47 -6 76 -21 105
-27 50 -1705 1727 -1752 1750 -47 24 -128 28 -176 10z"/>
</g>
</svg>
