<svg version="1.0" xmlns="http://www.w3.org/2000/svg"
 width="512.000000pt" height="512.000000pt" viewBox="0 0 512.000000 512.000000"
 preserveAspectRatio="xMidYMid meet">
<g transform="translate(0.000000,512.000000) scale(0.100000,-0.100000)"
fill="#FFFFFF" stroke="none">
<path d="M841 4866 c-48 -17 -108 -71 -133 -119 -29 -54 -31 -156 -4 -207 25
-49 1701 -1726 1751 -1753 55 -30 155 -30 210 0 50 27 1726 1704 1751 1753 26
50 25 153 -3 205 -28 52 -67 89 -123 114 -55 25 -110 26 -176 5 -45 -15 -117
-84 -802 -768 l-752 -751 -753 751 c-685 684 -756 753 -801 768 -57 19 -117
20 -165 2z"/>
<path d="M860 2351 c-71 -23 -122 -66 -156 -131 -26 -51 -25 -153 3 -205 13
-24 371 -388 880 -896 916 -913 878 -879 973 -879 95 0 57 -34 973 879 509
508 867 872 880 896 28 52 29 154 3 205 -26 49 -64 88 -111 113 -52 28 -155
29 -205 3 -19 -10 -374 -356 -787 -769 l-753 -752 -752 752 c-414 413 -768
759 -787 768 -39 19 -125 28 -161 16z"/>
</g>
</svg>
