<svg version="1.0" xmlns="http://www.w3.org/2000/svg"
 width="512.000000pt" height="512.000000pt" viewBox="0 0 512.000000 512.000000"
 preserveAspectRatio="xMidYMid meet">
<g transform="translate(0.000000,512.000000) scale(0.100000,-0.100000)"
fill="#FFFFFF" stroke="none">
<path d="M2510 4919 c-318 -39 -547 -106 -815 -239 -256 -126 -421 -245 -631
-455 -166 -166 -320 -377 -419 -574 -20 -40 -40 -70 -44 -65 -4 5 -65 129
-136 275 l-128 267 -152 -73 c-84 -40 -160 -77 -169 -82 -13 -7 25 -93 259
-578 174 -362 280 -570 289 -570 24 0 1136 539 1136 551 0 15 -149 318 -158
322 -5 1 -138 -60 -298 -137 -159 -76 -291 -137 -293 -135 -8 7 136 245 203
334 245 328 592 575 983 700 284 91 659 119 937 69 868 -154 1519 -820 1651
-1690 22 -138 22 -420 0 -558 -91 -597 -425 -1105 -936 -1422 -205 -127 -460
-223 -714 -268 -210 -38 -495 -32 -722 14 -450 91 -876 349 -1153 699 -51 65
-88 102 -95 98 -6 -4 -75 -52 -152 -107 l-141 -99 31 -45 c66 -92 219 -261
309 -341 179 -160 348 -274 553 -375 222 -109 453 -182 705 -221 161 -26 519
-26 680 -1 145 23 349 75 476 122 232 85 509 245 692 398 98 83 265 252 337
342 209 260 368 578 450 899 54 215 69 342 69 586 0 244 -15 371 -69 586 -82
321 -241 639 -450 899 -72 90 -239 259 -337 342 -183 153 -460 313 -692 398
-124 46 -329 99 -466 120 -124 19 -480 28 -590 14z"/>
</g>
</svg>
