<svg version="1.0" xmlns="http://www.w3.org/2000/svg"
 width="512.000000pt" height="512.000000pt" viewBox="0 0 512.000000 512.000000"
 preserveAspectRatio="xMidYMid meet">
<g transform="translate(0.000000,512.000000) scale(0.100000,-0.100000)"
fill="#FFFFFF" stroke="none">
<path d="M895 4306 c-40 -19 -551 -533 -565 -569 -17 -47 -12 -101 13 -138 48
-72 126 -97 200 -65 18 8 82 64 142 125 l110 111 5 -1434 c5 -1429 5 -1435 26
-1462 39 -53 71 -69 134 -69 63 0 95 16 134 69 21 27 21 31 24 1464 l2 1436
118 -116 c90 -90 127 -119 160 -129 115 -34 227 77 193 194 -11 35 -55 84
-274 306 -144 145 -276 269 -294 277 -40 17 -89 17 -128 0z"/>
<path d="M2175 4146 c-67 -29 -105 -106 -91 -181 9 -47 59 -102 104 -115 25
-8 184 -10 474 -8 423 3 437 4 464 24 53 39 69 71 69 134 0 63 -16 95 -69 134
-27 20 -40 21 -474 23 -356 2 -453 0 -477 -11z"/>
<path d="M2175 3186 c-67 -29 -105 -106 -91 -181 9 -47 59 -102 104 -115 25
-8 281 -10 794 -8 746 3 757 3 784 24 53 39 69 71 69 134 0 63 -16 95 -69 134
-27 21 -37 21 -794 23 -622 2 -773 0 -797 -11z"/>
<path d="M2175 2226 c-67 -29 -105 -106 -91 -181 9 -47 59 -102 104 -115 25
-8 353 -10 1034 -8 989 3 997 3 1024 24 53 39 69 71 69 134 0 63 -16 95 -69
134 -27 21 -35 21 -1034 23 -822 2 -1013 0 -1037 -11z"/>
<path d="M2175 1266 c-67 -29 -105 -106 -91 -181 9 -47 59 -102 104 -115 26
-8 425 -10 1274 -8 1231 3 1237 3 1264 24 53 39 69 71 69 134 0 63 -16 95 -69
134 -27 21 -32 21 -1274 23 -1021 2 -1253 0 -1277 -11z"/>
</g>
</svg>
