<svg version="1.0" xmlns="http://www.w3.org/2000/svg"
 width="512.000000pt" height="512.000000pt" viewBox="0 0 512.000000 512.000000"
 preserveAspectRatio="xMidYMid meet">
<g transform="translate(0.000000,512.000000) scale(0.100000,-0.100000)"
fill="#FFFFFF" stroke="none">
<path d="M890 4308 c-30 -15 -53 -37 -67 -63 l-23 -40 0 -1429 0 -1430 -117
116 c-91 90 -128 119 -160 129 -116 34 -228 -77 -194 -193 11 -36 55 -85 284
-315 375 -375 319 -374 690 -5 283 283 307 313 293 384 -17 89 -96 146 -184
133 -42 -6 -57 -18 -169 -128 l-123 -120 0 1429 0 1429 -23 40 c-24 43 -91 85
-137 85 -14 0 -46 -10 -70 -22z"/>
<path d="M2175 4146 c-67 -29 -105 -106 -91 -181 9 -47 59 -102 104 -115 25
-8 184 -10 474 -8 423 3 437 4 464 24 53 39 69 71 69 134 0 63 -16 95 -69 134
-27 20 -40 21 -474 23 -356 2 -453 0 -477 -11z"/>
<path d="M2175 3186 c-67 -29 -105 -106 -91 -181 9 -47 59 -102 104 -115 25
-8 281 -10 794 -8 746 3 757 3 784 24 53 39 69 71 69 134 0 63 -16 95 -69 134
-27 21 -37 21 -794 23 -622 2 -773 0 -797 -11z"/>
<path d="M2175 2226 c-67 -29 -105 -106 -91 -181 9 -47 59 -102 104 -115 25
-8 353 -10 1034 -8 989 3 997 3 1024 24 53 39 69 71 69 134 0 63 -16 95 -69
134 -27 21 -35 21 -1034 23 -822 2 -1013 0 -1037 -11z"/>
<path d="M2175 1266 c-67 -29 -105 -106 -91 -181 9 -47 59 -102 104 -115 26
-8 425 -10 1274 -8 1231 3 1237 3 1264 24 53 39 69 71 69 134 0 63 -16 95 -69
134 -27 21 -32 21 -1274 23 -1021 2 -1253 0 -1277 -11z"/>
</g>
</svg>
